<?xml version="1.0" encoding="UTF-8"?>
<svg version="1.1" xmlns="http://www.w3.org/2000/svg" width="2000" height="1500">
<path d="M0 0 C660 0 1320 0 2000 0 C2000 495 2000 990 2000 1500 C1340 1500 680 1500 0 1500 C0 1005 0 510 0 0 Z " fill="#D3DFDE" transform="translate(0,0)"/>
<path d="M0 0 C0.83047852 0.26538574 1.66095703 0.53077148 2.51660156 0.80419922 C33.75864303 10.92187932 62.41609426 26.14763935 87 48 C87.52078125 48.45375 88.0415625 48.9075 88.578125 49.375 C95.84567831 55.70712566 102.13623601 62.34453035 108 70 C111.07554812 69.36644398 113.4235904 68.33150851 116.125 66.7421875 C116.90770264 66.28497314 117.69040527 65.82775879 118.49682617 65.35668945 C119.32287354 64.86773193 120.1489209 64.37877441 121 63.875 C121.85505127 63.37508545 122.71010254 62.8751709 123.59106445 62.36010742 C127.18893007 60.2548106 130.77654842 58.13344664 134.35546875 55.99609375 C142.36774143 51.23293578 150.59935159 47.02424224 159 43 C160.30759277 42.37303223 160.30759277 42.37303223 161.64160156 41.73339844 C196.05269681 25.34887486 235.04362474 8.84229929 273.8125 8.8125 C274.67037109 8.80025391 275.52824219 8.78800781 276.41210938 8.77539062 C277.6409082 8.77249023 277.6409082 8.77249023 278.89453125 8.76953125 C280.00598511 8.76336792 280.00598511 8.76336792 281.13989258 8.75708008 C283 9 283 9 285 11 C284.625 13.625 284.625 13.625 284 16 C277.58129033 17.99347591 271.19152545 19.35170824 264.5625 20.375 C211.02356316 28.90203034 164.97335757 57.75229076 124 92 C124.49628906 92.98097656 124.99257812 93.96195313 125.50390625 94.97265625 C127.32036439 98.57405243 129.11971547 102.18370097 130.90966797 105.79833984 C131.5939123 107.18000473 132.28013504 108.56069347 132.96923828 109.93994141 C164.29073266 172.93599048 158.7399242 252.65043972 138 318 C137.70335449 318.9369873 137.40670898 319.87397461 137.10107422 320.83935547 C132.97937439 333.6469904 127.77439876 345.85755042 122 358 C121.62004883 358.80904785 121.24009766 359.6180957 120.84863281 360.45166016 C109.00281625 385.54252393 93.94967428 408.84613776 76 430 C75.20464844 430.9796875 74.40929688 431.959375 73.58984375 432.96875 C66.9843343 441.01401586 59.77431136 448.43997993 52.4375 455.8125 C51.95480652 456.30036987 51.47211304 456.78823975 50.97479248 457.29089355 C44.33013864 463.99166445 37.38062996 470.11885484 30 476 C28.97253244 476.8634864 27.9491367 477.73189516 26.93359375 478.609375 C-41.54647401 537.33719524 -136.08685705 567.20769649 -225.79394531 560.67480469 C-244.76364265 559.14054369 -263.44838208 556.2477349 -282 552 C-283.23572754 551.72220703 -284.47145508 551.44441406 -285.74462891 551.15820312 C-298.26436702 548.34330458 -310.73313378 545.48399376 -323.01953125 541.76025391 C-331.38714991 539.62585314 -339.40970177 543.19819918 -347.40625 545.61328125 C-348.93749152 546.07554891 -350.46874132 546.53778917 -352 547 C-352.68191406 547.2067334 -353.36382813 547.4134668 -354.06640625 547.62646484 C-365.47151798 551.02437506 -377.03451643 553.18965021 -388.75 555.1875 C-389.86142365 555.37733963 -389.86142365 555.37733963 -390.99530029 555.5710144 C-417.9869301 560.14905119 -444.5742017 562.18605531 -471.94113159 562.29754639 C-474.32830143 562.30740366 -476.71545743 562.32182297 -479.10256958 562.34112549 C-503.4906566 562.51342205 -528.27774389 561.56363439 -547.11328125 544.04296875 C-550.67264461 540.1888341 -551.74113213 536.77971659 -552.5 531.5625 C-551.43372842 523.96531503 -546.48392771 518.82974341 -540.76953125 514.015625 C-526.20218337 503.41371878 -509.56229771 499.554288 -492 497 C-491.02135986 496.85425537 -491.02135986 496.85425537 -490.02294922 496.70556641 C-482.62929845 495.73951821 -475.19556827 495.75737121 -467.75 495.75 C-466.68703705 495.74848938 -466.68703705 495.74848938 -465.6026001 495.74694824 C-454.41746643 495.75765202 -443.65443243 496.55336513 -432.64041138 498.5317688 C-430.1273213 498.97742177 -427.6114259 499.39930535 -425.09326172 499.81518555 C-410.88893252 502.21591603 -397.12051964 505.70345069 -383.25 509.5625 C-381.12262462 510.14601703 -378.99502087 510.72870215 -376.8671875 511.31054688 C-372.97422542 512.37867025 -369.08180838 513.4486042 -365.19238281 514.52954102 C-364.33116821 514.76883331 -363.46995361 515.00812561 -362.5826416 515.25466919 C-360.82195272 515.76279067 -359.0686082 516.29690688 -357.32263184 516.85348511 C-349.44169168 519.49219794 -349.44169168 519.49219794 -341.52148438 517.87353516 C-340.72033203 517.35065918 -339.91917969 516.8277832 -339.09375 516.2890625 C-338.19205078 515.70874268 -337.29035156 515.12842285 -336.36132812 514.53051758 C-334.9449707 513.58728638 -334.9449707 513.58728638 -333.5 512.625 C-332.51966797 511.98522217 -331.53933594 511.34544434 -330.52929688 510.6862793 C-310.21326844 497.34678038 -291.25182586 482.40396624 -273.2734375 466.0546875 C-271.14454691 464.13063862 -268.98580858 462.24854188 -266.8125 460.375 C-263.68459288 457.65453569 -260.7635137 454.78856548 -257.86230469 451.82983398 C-256.12270378 450.12056435 -254.33229737 448.54129585 -252.47265625 446.96484375 C-247.56385805 442.69519434 -242.96940585 438.12004596 -238.3815918 433.51196289 C-236.93974779 432.06475615 -235.49262884 430.62297974 -234.04492188 429.18164062 C-229.34404891 424.48378626 -224.78102111 419.7207685 -220.45532227 414.67358398 C-218.57142689 412.5071517 -216.5599799 410.49848796 -214.5 408.5 C-211.21896632 405.25743741 -208.14540004 401.92952978 -205.14453125 398.4296875 C-202.16551764 395.05455732 -199.08053736 391.78234907 -196 388.5 C-191.80019596 384.02068309 -187.63304641 379.53144369 -183.62890625 374.875 C-181.66334911 372.61248819 -179.64326691 370.40309317 -177.625 368.1875 C-174.49577173 364.72469918 -171.49499651 361.19320997 -168.5625 357.5625 C-165.48663412 353.75912497 -162.31246834 350.09917348 -159 346.5 C-154.98394153 342.13230508 -151.20614546 337.63150764 -147.48046875 333.015625 C-144.55031405 329.45329519 -141.53230943 325.97534874 -138.5 322.5 C-133.98620624 317.32227942 -129.56946877 312.08486694 -125.24609375 306.74609375 C-122.68109606 303.61010527 -120.0634254 300.52244685 -117.4375 297.4375 C-114.23251482 293.66919439 -111.07311916 289.87753481 -108 286 C-104.47116597 281.54746299 -100.81770671 277.21314021 -97.13671875 272.88671875 C-94.21995487 269.45428391 -91.34306574 265.99407185 -88.5 262.5 C-84.75212202 257.8954642 -80.93016556 253.35980809 -77.0859375 248.8359375 C-74.18755177 245.4194046 -71.328449 241.97495162 -68.5 238.5 C-64.75082511 233.89387085 -60.92814812 229.356104 -57.08154297 224.83154297 C-54.22153062 221.4614901 -51.40744267 218.05973692 -48.625 214.625 C-39.70678652 203.69504031 -30.36099103 193.18298463 -20.6796875 182.92578125 C-18.17730008 180.27425197 -15.71660317 177.58821382 -13.26805115 174.88693237 C-7.19174254 168.19830142 -0.90258781 161.74803605 5.4987793 155.37084961 C7.20023778 153.67480274 8.89621263 151.97340179 10.59179688 150.27148438 C15.73077574 145.12970044 20.88583393 140.08466368 26.41918945 135.36254883 C28.38277409 133.67007534 30.19994361 131.86434412 32 130 C35.83600678 126.11956071 39.85697028 122.5472552 44 119 C45.00711652 118.11787901 46.013576 117.23500755 47.01953125 116.3515625 C61.27425791 103.89666453 76.46324485 92.79211403 92 82 C88.04066549 70.98871646 78.94392143 62.33057248 71 54 C69.99839844 52.91912109 69.99839844 52.91912109 68.9765625 51.81640625 C59.72790235 42.11897145 48.55308652 34.66160427 37 28 C35.90816406 27.35417969 34.81632812 26.70835937 33.69140625 26.04296875 C18.35216156 17.24229712 1.09513317 11.3458712 -16 7 C-17.17304687 6.67644531 -18.34609375 6.35289062 -19.5546875 6.01953125 C-90.03821516 -12.79048994 -165.50364493 -4.02599453 -231 27 C-231.72348633 27.34095703 -232.44697266 27.68191406 -233.19238281 28.03320312 C-237.85234204 30.24971328 -242.43423948 32.59645087 -247 35 C-247.73686035 35.38172363 -248.4737207 35.76344727 -249.23291016 36.15673828 C-268.1810264 46.0148 -286.23845027 57.7516711 -303 71 C-303.81597656 71.63679687 -304.63195312 72.27359375 -305.47265625 72.9296875 C-324.87539302 88.24278245 -344.52125253 104.79289967 -359.84375 124.2890625 C-361.78763171 126.73300074 -363.8119604 129.08109861 -365.87451172 131.42480469 C-389.53172701 158.51680913 -414.76260668 199.03287454 -416 236 C-416.03867187 236.95447021 -416.03867187 236.95447021 -416.078125 237.92822266 C-416.75356301 256.54920437 -414.29367655 273.77550021 -401.625 288.4375 C-388.25511701 302.21321417 -370.99149689 310.22165281 -351.68945312 311.16113281 C-330.62531978 311.66728375 -330.62531978 311.66728375 -310 308 C-308.45718751 307.58145483 -306.91420625 307.16353148 -305.37109375 306.74609375 C-293.23312112 303.36369125 -281.55865651 298.99940287 -270 294 C-269.22865723 293.66661621 -268.45731445 293.33323242 -267.66259766 292.98974609 C-234.50085395 278.4335082 -203.63564957 257.28450475 -176 234 C-175.4829248 233.5678418 -174.96584961 233.13568359 -174.43310547 232.69042969 C-159.90707658 220.53328725 -145.36486105 207.76700973 -133.0234375 193.359375 C-131.48316814 191.56338525 -129.92201654 189.78528118 -128.3515625 188.015625 C-100.22271774 156.13689572 -79.12392982 119.54592657 -73.484375 77.12109375 C-73.24460937 75.39052734 -73.24460937 75.39052734 -73 73.625 C-72.87625 72.62726563 -72.7525 71.62953125 -72.625 70.6015625 C-71.94105472 67.75464026 -70.908832 66.18893235 -69 64 C-66.13275314 64.57344937 -65.1385485 64.8614515 -63 67 C-56.16981741 110.86239943 -81.32283433 161.82876576 -106.04296875 196.2890625 C-112.30992244 204.85062938 -119.02151456 213.01244893 -126 221 C-126.71285156 221.825 -127.42570312 222.65 -128.16015625 223.5 C-137.42812688 234.03257223 -147.31633049 244.23077522 -158.35546875 252.91015625 C-161.14314784 255.11312274 -163.81221693 257.42653607 -166.5 259.75 C-178.37857161 269.66683091 -191.62324297 278.24514973 -205 286 C-205.70108887 286.40927734 -206.40217773 286.81855469 -207.12451172 287.24023438 C-220.32019229 294.88586025 -233.88074803 301.25211602 -248 307 C-248.81291504 307.33515625 -249.62583008 307.6703125 -250.46337891 308.015625 C-288.82386266 323.65791961 -340.00773933 332.69010855 -379.75 317.25 C-391.55015206 312.18369955 -402.28826697 306.50423514 -412 298 C-412.69480469 297.43667969 -413.38960937 296.87335938 -414.10546875 296.29296875 C-428.33640482 284.53937164 -435.52033116 269.4744107 -440 252 C-440.18030762 251.37407959 -440.36061523 250.74815918 -440.54638672 250.10327148 C-448.80609698 211.80542223 -430.01605978 167.44408525 -410 136 C-402.49973772 124.63679497 -394.05329359 114.15006547 -385 104 C-384.22011719 103.10925781 -383.44023438 102.21851563 -382.63671875 101.30078125 C-374.67648102 92.29426005 -366.24833872 83.6892898 -357 76 C-356.46842285 75.55462891 -355.9368457 75.10925781 -355.38916016 74.65039062 C-338.86240436 60.8431145 -321.67729547 48.7260933 -303 38 C-302.23155762 37.55527344 -301.46311523 37.11054688 -300.67138672 36.65234375 C-219.04074263 -10.42536793 -116.36097575 -26.88972219 0 0 Z " fill="#022140" transform="translate(1133,456)"/>
<path d="M0 0 C14.93105709 12.42052537 18.16711624 51.26017985 20 69 C21.07206453 82.27942412 21.24213462 95.55850567 21.25 108.875 C21.25067474 109.91013733 21.25134949 110.94527466 21.25204468 112.01177979 C21.22248769 140.65554314 18.5512494 169.43982598 9.68994141 196.85986328 C9.15994927 198.50385164 8.64084231 200.15135234 8.12646484 201.80029297 C-6.17945222 247.54111611 -29.04848241 291.13516797 -61.734375 326.5234375 C-63.61831863 328.58278277 -65.44681703 330.67218942 -67.26953125 332.78515625 C-70.99256733 337.05086541 -74.92349222 341.07171695 -78.9375 345.0625 C-79.60201172 345.73087891 -80.26652344 346.39925781 -80.95117188 347.08789062 C-85.4690472 351.59700188 -90.14504852 355.85754788 -95 360 C-95.62704834 360.53906982 -96.25409668 361.07813965 -96.90014648 361.63354492 C-112.52296647 374.98000601 -129.13854791 386.83760639 -147 397 C-147.68739258 397.39638672 -148.37478516 397.79277344 -149.08300781 398.20117188 C-180.83171584 416.47770699 -215.32806734 430.62378762 -251.59667969 436.59863281 C-253.97854463 436.99641684 -256.35237506 437.42605455 -258.7265625 437.8671875 C-270.22387953 439.98385352 -281.31759023 441.15441836 -293.0234375 441.203125 C-294.15401077 441.21036591 -295.28458405 441.21760681 -296.44941711 441.22506714 C-332.03218494 441.40101491 -364.0473378 438.50493585 -398.67578125 430.27734375 C-399.5130777 430.07841019 -400.35037415 429.87947662 -401.21304321 429.67451477 C-405.84521669 428.55952786 -410.42890422 427.34389986 -415 426 C-412.77774443 423.51746836 -410.78250826 422.28096401 -407.7109375 421.01953125 C-406.86096191 420.6647168 -406.01098633 420.30990234 -405.13525391 419.94433594 C-404.22437012 419.57083008 -403.31348633 419.19732422 -402.375 418.8125 C-400.45227783 418.00331211 -398.53041149 417.19208789 -396.609375 416.37890625 C-395.17754883 415.77393311 -395.17754883 415.77393311 -393.71679688 415.15673828 C-350.76432957 396.86874492 -311.99286893 369.34063466 -277.9140625 337.66796875 C-275.73184451 335.67003994 -273.52934482 333.72603454 -271.28881836 331.79589844 C-267.18898399 328.21274713 -263.307825 324.45285509 -259.46484375 320.59765625 C-258.78249161 319.91626083 -258.10013947 319.23486542 -257.39710999 318.53282166 C-255.96655563 317.10294259 -254.53724233 315.67182089 -253.10913086 314.23950195 C-250.94300926 312.06802289 -248.77159826 309.90193675 -246.59960938 307.73632812 C-245.20020013 306.33625798 -243.80110116 304.93587762 -242.40234375 303.53515625 C-241.76360825 302.89844498 -241.12487274 302.2617337 -240.46678162 301.60572815 C-236.66943736 297.788899 -233.05543411 293.85983103 -229.54185486 289.77996826 C-227.29802028 287.18961138 -224.9608606 284.69521821 -222.625 282.1875 C-218.33569297 277.54442811 -214.27321381 272.76558383 -210.30859375 267.83984375 C-208.22898538 265.28167914 -206.10918849 262.76834685 -203.96533203 260.2644043 C-198.54436024 253.92924495 -193.38300159 247.4270297 -188.34960938 240.77929688 C-186.40312431 238.21309152 -184.44290733 235.65747131 -182.48388672 233.10083008 C-180.83886793 230.95281996 -179.19650756 228.80279957 -177.5546875 226.65234375 C-175.06446579 223.39100622 -172.56862828 220.13404679 -170.0703125 216.87890625 C-162.63445907 207.1753685 -155.33258202 197.39717023 -148.2109375 187.4609375 C-144.84964737 182.77581618 -141.42808773 178.13636363 -138 173.5 C-126.4296599 157.82976973 -115.13558543 141.98168411 -104 126 C-87.37717327 102.14308045 -70.63139692 78.35038417 -52 56 C-51.28972656 55.11699219 -50.57945312 54.23398437 -49.84765625 53.32421875 C-44.96864454 47.26189665 -39.86013594 41.4893837 -34.5703125 35.7890625 C-32.41922571 33.4549045 -30.32074342 31.09253383 -28.25 28.6875 C-25.54522362 25.56412728 -22.68406308 22.6604866 -19.734375 19.76953125 C-17.97659691 17.97612252 -16.36675382 16.10835751 -14.75 14.1875 C-10.28403506 8.9857239 -5.13099334 4.52789285 0 0 Z " fill="#D3DFDE" transform="translate(1239,563)"/>
<path d="M0 0 C-2.55473886 3.06889666 -5.24273023 4.03445622 -8.96875 5.33984375 C-10.16951172 5.76128662 -11.37027344 6.18272949 -12.60742188 6.61694336 C-13.90439977 7.05874137 -15.20193994 7.4988917 -16.5 7.9375 C-17.48722046 8.27323532 -17.48722046 8.27323532 -18.49438477 8.61575317 C-29.21879228 12.24516891 -39.78190376 15.34901046 -51 17 C-51.91233398 17.14518066 -52.82466797 17.29036133 -53.76464844 17.43994141 C-71.46919732 20.14294813 -89.18970502 20.31379074 -107.0625 20.375 C-108.7613736 20.38678284 -108.7613736 20.38678284 -110.49456787 20.39880371 C-157.82323402 20.65408331 -157.82323402 20.65408331 -172 9 C-174.34549674 5.48175489 -174.57991403 4.14224306 -174 0 C-168.22235917 -8.16838876 -157.58364301 -10.33406426 -148.3125 -12.25 C-147.14835571 -12.49472046 -147.14835571 -12.49472046 -145.96069336 -12.74438477 C-98.45499882 -21.78735914 -45.97277579 -12.4705916 0 0 Z " fill="#D1DDDD" transform="translate(767,985)"/>
</svg>
